<?xml version="1.0" encoding="iso-8859-1"?>
<!-- Generator: Adobe Illustrator 19.0.0, SVG Export Plug-In . SVG Version: 6.00 Build 0)  -->
<svg version="1.1" id="Capa_1" xmlns="http://www.w3.org/2000/svg" xmlns:xlink="http://www.w3.org/1999/xlink" x="0px" y="0px"
	 viewBox="0 0 511.012 511.012" style="enable-background:new 0 0 511.012 511.012;" xml:space="preserve">
<g>
	<path d="M385.872,284.883c28.083-26.869,45.205-62.431,45.205-101.383c0-31.082-10.905-60.004-29.578-84.075
		c13.61-10.468,21.578-26.483,21.578-43.925c0-30.603-24.897-55.5-55.5-55.5c-25.102,0-46.906,16.853-53.482,40.671
		C295.783,35.063,276.089,32,255.578,32s-40.206,3.063-58.518,8.671C190.484,16.853,168.679,0,143.578,0
		c-30.603,0-55.5,24.897-55.5,55.5c0,17.446,7.967,33.457,21.578,43.925c-18.672,24.071-29.578,52.993-29.578,84.075
		c0,38.927,17.101,74.468,45.15,101.33c-19.373,11.759-72.657,48.191-69.125,91.283c1.097,13.385,6.236,23.083,15.272,28.824
		c6.477,4.114,13.989,5.414,20.899,5.414c11.469,0,21.278-3.583,21.926-3.824c0.222-0.083,0.436-0.178,0.645-0.279
		c2.55,5.419,5.542,10.695,8.961,15.793c-3.523,7.767-4.609,16.936-3.028,26.832c2.278,14.263,9.885,28.471,21.42,40.006
		s25.743,19.142,40.006,21.42c2.986,0.477,5.904,0.712,8.741,0.712c11.555,0,21.71-3.916,29.178-11.383
		c4.116-4.116,7.147-9.05,9.044-14.583c8.685,1.291,17.537,1.954,26.411,1.954c8.874,0,17.727-0.663,26.411-1.954
		c1.897,5.533,4.928,10.467,9.044,14.583c7.468,7.468,17.622,11.383,29.178,11.383c2.835,0,5.756-0.236,8.741-0.712
		c14.263-2.278,28.471-9.885,40.006-21.42s19.142-25.743,21.42-40.006c1.58-9.897,0.495-19.065-3.028-26.832
		c3.408-5.081,6.391-10.341,8.936-15.742c0.173,0.08,0.346,0.16,0.527,0.228c0.647,0.242,10.455,3.824,21.926,3.824
		c6.91,0,14.424-1.301,20.899-5.415c9.037-5.74,14.175-15.438,15.272-28.823C458.436,333.086,405.318,296.699,385.872,284.883z
		 M367.578,15c22.332,0,40.5,18.168,40.5,40.5c0,12.982-6.063,24.872-16.366,32.501c-3.961-4.2-8.174-8.214-12.624-12.024
		c7.149-4.034,11.991-11.699,11.991-20.477c0-12.958-10.542-23.5-23.5-23.5c-12.045,0-21.997,9.111-23.34,20.802
		c-5.152-2.614-10.467-5.012-15.936-7.17C332.766,27.751,348.923,15,367.578,15z M359.078,55.5c0-4.687,3.813-8.5,8.5-8.5
		s8.5,3.813,8.5,8.5s-3.813,8.5-8.5,8.5S359.078,60.187,359.078,55.5z M103.078,55.5c0-22.332,18.168-40.5,40.5-40.5
		c18.655,0,34.811,12.751,39.277,30.632c-5.469,2.158-10.784,4.556-15.936,7.17C165.575,41.111,155.623,32,143.578,32
		c-12.958,0-23.5,10.542-23.5,23.5c0,8.778,4.841,16.443,11.99,20.477c-4.45,3.81-8.663,7.825-12.624,12.024
		C109.14,80.373,103.078,68.485,103.078,55.5z M135.078,55.5c0-4.687,3.813-8.5,8.5-8.5s8.5,3.813,8.5,8.5s-3.813,8.5-8.5,8.5
		S135.078,60.187,135.078,55.5z M95.078,183.5c0-75.266,72-136.5,160.5-136.5s160.5,61.234,160.5,136.5s-72,136.5-160.5,136.5
		S95.078,258.766,95.078,183.5z M108.956,392.473c-0.184,0.069-18.714,6.678-29.538-0.198c-4.926-3.129-7.663-8.817-8.365-17.388
		c-1.736-21.18,16.337-41.737,31.805-55.251c4.269-3.73,8.584-7.141,12.678-10.175c-7.549,15.43-11.458,32.039-11.458,49.151
		c0,11.47,1.813,22.802,5.308,33.726C109.242,392.381,109.098,392.42,108.956,392.473z M140.448,297.75
		c30.839,23.188,71.117,37.25,115.13,37.25c44.014,0,84.292-14.062,115.132-37.251c13.973,18.185,21.368,39.189,21.368,60.863
		c0,17.614-4.936,34.906-14.321,50.535c-8.421-7.307-19.763-10.546-32.474-9.3C326.81,370.223,292.886,352,255.578,352
		c-37.309,0-71.232,18.223-89.705,47.846c-12.711-1.247-24.053,1.992-32.474,9.3c-9.385-15.629-14.321-32.92-14.321-50.535
		C119.078,336.837,126.458,315.935,140.448,297.75z M152.804,478.273c-16.578-16.579-22.198-38.585-14.252-52.147
		c0.292-0.379,0.542-0.781,0.753-1.201c0.805-1.197,1.713-2.327,2.75-3.364c4.781-4.781,11.379-7.072,18.743-7.072
		c12.152,0,26.388,6.24,37.969,17.821c12.944,12.944,19.205,29.198,17.551,42.159c-0.057,0.204-0.111,0.409-0.151,0.621
		c-0.07,0.368-0.103,0.733-0.118,1.096c-0.928,4.963-3.074,9.377-6.532,12.836C196.844,501.693,171.403,496.872,152.804,478.273z
		 M231.5,470.228c-0.012-2.766-0.243-5.61-0.707-8.517c-2.278-14.263-9.885-28.471-21.42-40.006
		c-8.256-8.256-17.884-14.486-27.919-18.204C197.712,380.788,225.313,367,255.578,367s57.866,13.788,74.124,36.501
		c-10.035,3.718-19.663,9.947-27.919,18.204c-11.535,11.535-19.142,25.743-21.42,40.006c-0.464,2.907-0.695,5.751-0.707,8.517
		C263.819,472.562,247.337,472.562,231.5,470.228z M358.351,478.273c-18.599,18.598-44.04,23.421-56.712,10.75
		c-3.449-3.449-5.592-7.848-6.524-12.794c-0.014-0.378-0.047-0.758-0.12-1.14c-0.045-0.235-0.103-0.464-0.168-0.689
		c-1.623-12.95,4.641-29.168,17.561-42.089c18.598-18.598,44.039-23.422,56.712-10.75c1.052,1.052,1.972,2.2,2.785,3.417
		c0.198,0.386,0.427,0.758,0.695,1.109C380.56,439.646,374.945,461.679,358.351,478.273z M439.959,374.887
		c-0.701,8.554-3.427,14.235-8.334,17.368c-9.043,5.775-24.422,2.11-29.568,0.218c-0.099-0.037-0.2-0.062-0.3-0.095
		c3.504-10.937,5.321-22.283,5.321-33.767c0-17.033-3.94-33.666-11.493-49.127C417.309,325.744,441.959,350.488,439.959,374.887z"/>
	<path d="M255.578,303c52.659,0,95.5-33.869,95.5-75.5s-42.841-75.5-95.5-75.5s-95.5,33.869-95.5,75.5S202.919,303,255.578,303z
		 M280.078,183.5c0,4.081,0,16.5-24.5,16.5s-24.5-12.419-24.5-16.5c0-3.94,0.006-15.651,22.06-16.453
		c0.813-0.018,1.622-0.047,2.44-0.047s1.628,0.028,2.44,0.047C280.071,167.849,280.078,179.56,280.078,183.5z M217.306,174.287
		c-0.805,2.838-1.228,5.912-1.228,9.213c0,17.638,11.815,28.912,32,31.102V231.5c0,9.098-7.402,16.5-16.5,16.5
		s-16.5-7.402-16.5-16.5c0-4.142-3.358-7.5-7.5-7.5s-7.5,3.358-7.5,7.5c0,17.369,14.131,31.5,31.5,31.5
		c9.607,0,18.217-4.328,24-11.131c5.783,6.803,14.393,11.131,24,11.131c17.369,0,31.5-14.131,31.5-31.5c0-4.142-3.358-7.5-7.5-7.5
		s-7.5,3.358-7.5,7.5c0,9.098-7.402,16.5-16.5,16.5s-16.5-7.402-16.5-16.5v-16.898c20.185-2.189,32-13.463,32-31.102
		c0-3.302-0.423-6.375-1.228-9.213c25.128,10.249,42.228,30.258,42.228,53.213c0,33.36-36.112,60.5-80.5,60.5s-80.5-27.14-80.5-60.5
		C175.078,204.545,192.177,184.536,217.306,174.287z"/>
	<path d="M175.578,167c4.142,0,7.5-3.358,7.5-7.5v-8c0-4.142-3.358-7.5-7.5-7.5s-7.5,3.358-7.5,7.5v8
		C168.078,163.642,171.436,167,175.578,167z"/>
	<path d="M335.578,167c4.142,0,7.5-3.358,7.5-7.5v-8c0-4.142-3.358-7.5-7.5-7.5s-7.5,3.358-7.5,7.5v8
		C328.078,163.642,331.436,167,335.578,167z"/>
</g>
<g>
</g>
<g>
</g>
<g>
</g>
<g>
</g>
<g>
</g>
<g>
</g>
<g>
</g>
<g>
</g>
<g>
</g>
<g>
</g>
<g>
</g>
<g>
</g>
<g>
</g>
<g>
</g>
<g>
</g>
</svg>
