<?xml version="1.0" encoding="iso-8859-1"?>
<!-- Generator: Adobe Illustrator 19.0.0, SVG Export Plug-In . SVG Version: 6.00 Build 0)  -->
<svg version="1.1" id="Capa_1" xmlns="http://www.w3.org/2000/svg" xmlns:xlink="http://www.w3.org/1999/xlink" x="0px" y="0px"
	 viewBox="0 0 509.023 509.023" style="enable-background:new 0 0 509.023 509.023;" xml:space="preserve">
<g>
	<path d="M456.245,209.48c4.183-9.231,7.328-18.786,9.462-28.539c8.174-3.277,43.316-18.966,43.316-46.424
		c0-4.783-3.778-6.596-5.808-7.57c-27.959-13.418-43.341-31.545-51.321-44.389c-0.01-0.015-0.021-0.029-0.03-0.044
		c-7.397-13.662-17.029-26.191-28.538-36.916c-22.874-21.316-52.333-34.753-82.952-37.833
		c-41.168-4.142-80.618,8.747-111.077,36.294c-30.043,27.172-47.274,65.974-47.274,106.457c0,35.538,12.83,69.075,36.311,95.382
		c-61.307,40.148-144.652,22.973-185.472,5.791c-7.912-3.329-17.036-2.14-23.813,3.107c-6.736,5.215-10.024,13.344-8.795,21.746
		C8.4,332.252,38.278,388.377,82.229,430.527c48.071,46.101,108.904,71.49,171.294,71.49c55.625,0,134.308-10.187,193.266-58.714
		c39.551-32.553,62.234-76.578,62.234-120.786C509.023,275.63,490.338,235.747,456.245,209.48z M493.447,138.852
		c-2.781,10.493-15.081,19.152-24.995,24.34c1.103-12.375,0.593-24.952-1.565-37.507c-0.274-1.596-0.583-3.185-0.914-4.77
		C473.546,127.196,482.616,133.35,493.447,138.852z M437.257,431.721c-30.648,25.226-87.402,55.296-183.734,55.296
		c-128.064,0-223.474-110.378-238.428-212.645c-0.627-4.286,1.984-6.823,3.136-7.714c1.58-1.223,3.449-1.851,5.352-1.851
		c1.16,0,2.332,0.233,3.458,0.708c10.073,4.24,46.495,18.201,92.24,19.829c45.533,1.612,84.217-9.246,114.972-32.295
		c1.744-1.307,2.833-3.309,2.984-5.483c0.151-2.174-0.652-4.307-2.2-5.842c-24.514-24.322-38.015-56.712-38.015-91.205
		c0-36.251,15.431-70.999,42.335-95.332c27.273-24.667,62.613-36.207,99.514-32.495c27.376,2.754,53.737,14.787,74.227,33.882
		c20.493,19.097,34.345,44.544,39.004,71.653c4.749,27.625,0.6,55.366-11.999,80.227c-1.688,3.331-0.669,7.395,2.39,9.535
		c33.71,23.586,51.528,59.731,51.528,104.53C494.023,362.225,473.333,402.028,437.257,431.721z"/>
	<path d="M389.523,103.017c-4.142,0-7.5,3.358-7.5,7.5v16c0,4.142,3.358,7.5,7.5,7.5s7.5-3.358,7.5-7.5v-16
		C397.023,106.375,393.665,103.017,389.523,103.017z"/>
	<path d="M318.826,273.154c-6.976-2.067-14.426-0.843-20.442,3.359c-40.799,28.5-116.84,50.665-156.046,55.707
		c-9.302,1.196-16.755,7.534-19.451,16.541c-2.708,9.046,0.053,18.48,7.204,24.621c41.528,35.663,85.306,49.684,120.72,49.683
		c17.994,0,33.831-3.621,46.111-9.862c28.037-14.248,43.902-35.896,47.155-64.341c2.696-23.576-4.151-46.839-10.371-62.203
		C331.047,280.092,325.624,275.17,318.826,273.154z M329.173,347.158c-2.645,23.127-15.782,40.85-39.048,52.673
		c-16.586,8.429-40.214,10.5-64.829,5.683c-29.458-5.766-59.001-20.812-85.434-43.511c-3.899-3.348-2.98-7.689-2.606-8.94
		c0.37-1.236,1.968-5.318,6.994-5.964c40.738-5.24,119.952-28.41,162.723-58.288c1.541-1.077,3.323-1.634,5.119-1.634
		c0.828,0,1.659,0.119,2.47,0.359c1.407,0.417,3.959,1.589,5.239,4.752C325.367,306.037,331.51,326.717,329.173,347.158z"/>
	<path d="M454.349,281.446c0.99,2.367,1.898,4.828,2.697,7.315c3.303,10.28,4.977,21.637,4.977,33.756
		c0,18.248-6.606,38.064-18.601,55.8c-2.321,3.431-1.42,8.094,2.011,10.414c1.288,0.871,2.749,1.289,4.195,1.289
		c2.406,0,4.77-1.156,6.219-3.299c13.655-20.19,21.176-42.991,21.176-64.203c0-13.679-1.917-26.579-5.696-38.344
		c-0.929-2.892-1.986-5.757-3.14-8.517c-1.599-3.821-5.993-5.623-9.814-4.024C454.552,273.232,452.751,277.625,454.349,281.446z"/>
	<path d="M451.441,260.239c3.16-2.678,3.55-7.411,0.873-10.571c-3.003-3.543-6.305-6.924-9.813-10.049
		c-3.092-2.755-7.833-2.482-10.589,0.611c-2.755,3.093-2.481,7.833,0.611,10.589c2.987,2.661,5.795,5.537,8.347,8.547
		c1.484,1.75,3.598,2.651,5.726,2.651C448.309,262.018,450.031,261.434,451.441,260.239z"/>
</g>
<g>
</g>
<g>
</g>
<g>
</g>
<g>
</g>
<g>
</g>
<g>
</g>
<g>
</g>
<g>
</g>
<g>
</g>
<g>
</g>
<g>
</g>
<g>
</g>
<g>
</g>
<g>
</g>
<g>
</g>
</svg>
