<?xml version="1.0" encoding="iso-8859-1"?>
<!-- Generator: Adobe Illustrator 18.0.0, SVG Export Plug-In . SVG Version: 6.00 Build 0)  -->
<!DOCTYPE svg PUBLIC "-//W3C//DTD SVG 1.1//EN" "http://www.w3.org/Graphics/SVG/1.1/DTD/svg11.dtd">
<svg version="1.1" id="Capa_1" xmlns="http://www.w3.org/2000/svg" xmlns:xlink="http://www.w3.org/1999/xlink" x="0px" y="0px"
	 viewBox="0 0 459.958 459.958" style="enable-background:new 0 0 459.958 459.958;" xml:space="preserve">
<g>
	<circle cx="175.875" cy="185.125" r="8"/>
	<circle cx="110.541" cy="185.125" r="8"/>
	<path d="M359.826,52.518c-2.167,0-4.28,0.232-6.32,0.665l-4.019-5.767C330.019,19.484,298.096,1.809,264.09,0.137
		c-29.466-1.451-57.742,8.638-79.635,28.404l-17.647,15.932c-12.637-2.529-25.205,5.331-28.348,17.969l-2.201,8.847
		c-1.884,7.576,0.031,15.218,4.525,20.922c-15.725,8.93-29.092,21.543-38.959,36.849c-11.655,18.079-17.816,39.054-17.816,60.656
		v24.488l-11.02,4.858c-1.994,0.879-3.281,2.853-3.281,5.033s1.287,4.153,3.281,5.033l11.02,4.858v18.551
		c0,61.807,50.283,112.09,112.09,112.09h10.943v47.833c0,3.038,2.463,5.5,5.5,5.5h9.166v36.5c0,3.038,2.463,5.5,5.5,5.5
		s5.5-2.462,5.5-5.5v-36.5h21.5c3.037,0,5.5-2.462,5.5-5.5s-2.463-5.5-5.5-5.5h-21.5v-42.333h69.98c3.037,0,5.5-2.462,5.5-5.5v-36.5
		h15.025c3.037,0,5.5-2.462,5.5-5.5v-46.5c0-16.85-8.062-31.847-20.525-41.356v-39.554c0-21.02-5.736-41.18-16.663-58.827
		c7.497-2.611,13.579-8.83,15.633-17.092l2.2-8.846c1.568-6.301,0.588-12.836-2.76-18.399c-1.93-3.207-4.528-5.848-7.577-7.829
		l7.496-9.752c3.276-4.261,8.43-6.566,13.793-6.172l15.759,1.167c-4.168,5.207-6.669,11.803-6.669,18.977
		c0,16.776,13.648,30.425,30.425,30.425c16.775,0,30.424-13.648,30.424-30.425S376.601,52.518,359.826,52.518z M101.319,218.592
		l32.765-14.444l5.924,14.444H101.319z M140.008,229.592l-5.924,14.444l-32.765-14.444H140.008z M221.708,406.958h-3.666v-42.333
		h3.666V406.958z M317.714,270.625v41h-41c-22.607,0-41-18.393-41-41s18.393-41,41-41S317.714,248.017,317.714,270.625z
		 M297.188,222.832c-6.287-2.704-13.208-4.208-20.475-4.208c-28.673,0-52,23.327-52,52s23.327,52,52,52h20.475v31h-101.09
		c-55.741,0-101.09-45.349-101.09-101.09v-13.702l39.804,17.547c0.706,0.311,1.462,0.467,2.219,0.467
		c0.698,0,1.396-0.133,2.057-0.399c1.376-0.555,2.469-1.642,3.032-3.014l11.177-27.254c0.548-1.337,0.548-2.836,0-4.174
		l-11.177-27.253c-0.563-1.373-1.656-2.459-3.032-3.014s-2.918-0.53-4.275,0.068l-39.804,17.547v-19.638
		c0-37.936,21.653-73.033,55.374-90.169c1.15,0.485,2.351,0.89,3.6,1.2l123.72,30.773c0.406,0.101,0.813,0.185,1.219,0.264
		c11.948,17.028,18.267,37.002,18.267,57.932V222.832z M298.684,102.295l-2.199,8.846c-1.772,7.121-9.006,11.475-16.129,9.703
		L156.637,90.07c-7.121-1.771-11.474-9.006-9.702-16.128l2.199-8.846c1.505-6.047,6.948-10.098,12.917-10.098
		c1.061,0,2.138,0.128,3.212,0.395l123.72,30.773c3.449,0.858,6.359,3.008,8.191,6.054
		C299.007,95.267,299.543,98.845,298.684,102.295z M297.798,62.266l-9.524,12.389L179.703,47.651l12.123-10.945
		c19.719-17.802,45.2-26.888,71.723-25.582c30.438,1.497,59.022,17.227,76.585,42.112l-19.01-1.408
		C312.061,51.154,303.338,55.059,297.798,62.266z M359.826,102.367c-10.711,0-19.425-8.714-19.425-19.425
		s8.714-19.425,19.425-19.425c10.71,0,19.424,8.714,19.424,19.425S370.536,102.367,359.826,102.367z"/>
</g>
<g>
</g>
<g>
</g>
<g>
</g>
<g>
</g>
<g>
</g>
<g>
</g>
<g>
</g>
<g>
</g>
<g>
</g>
<g>
</g>
<g>
</g>
<g>
</g>
<g>
</g>
<g>
</g>
<g>
</g>
</svg>
