<?xml version="1.0" encoding="iso-8859-1"?>
<!-- Generator: Adobe Illustrator 18.0.0, SVG Export Plug-In . SVG Version: 6.00 Build 0)  -->
<!DOCTYPE svg PUBLIC "-//W3C//DTD SVG 1.1//EN" "http://www.w3.org/Graphics/SVG/1.1/DTD/svg11.dtd">
<svg version="1.1" id="Capa_1" xmlns="http://www.w3.org/2000/svg" xmlns:xlink="http://www.w3.org/1999/xlink" x="0px" y="0px"
	 viewBox="0 0 460.528 460.528" style="enable-background:new 0 0 460.528 460.528;" xml:space="preserve">
<g>
	<path d="M396.52,221.146c0-30.341-16.546-59.052-44.425-77.368v-111.9C352.095,14.3,337.795,0,320.218,0
		s-31.877,14.3-31.877,31.877v92.212c-1.418-0.047-2.827-0.07-4.218-0.07c-16.891,0-33.535,3.282-48.643,9.544V31.877
		C235.48,14.3,221.179,0,203.602,0s-31.877,14.3-31.877,31.877v185.152c-22.485,7.604-42.616,22.005-57.11,40.981
		c-16.101,21.08-24.611,46.278-24.611,72.872v36.693c-14.753,2.61-25.996,15.515-25.996,31.005
		c0,15.904,11.858,29.083,27.198,31.186c4.391,17.644,20.363,30.76,39.347,30.76c0,0,111.79,0,111.974,0
		c8.235,0,15.575-3.882,20.304-9.906c4.73,6.026,12.074,9.909,20.313,9.909c6.892,0,13.371-2.685,18.246-7.559
		c4.874-4.874,7.558-11.354,7.558-18.246V315.88C359.018,306.088,396.52,267.332,396.52,221.146z M75.009,398.58
		c0-9.395,6.361-17.313,14.996-19.725v39.44C81.37,415.884,75.009,407.97,75.009,398.58z M284.122,307.272
		c-12.938,0-25.539-2.043-37.455-6.073c-2.879-0.975-5.999,0.571-6.972,3.448c-0.973,2.877,0.57,5.999,3.448,6.972
		c13.053,4.415,26.841,6.653,40.979,6.653c4.68,0,9.293-0.253,13.825-0.735v117.187c0,3.954-1.54,7.671-4.336,10.467
		c-2.796,2.797-6.514,4.337-10.467,4.337c-8.15,0-14.781-6.611-14.812-14.748c0-0.02,0.002-0.04,0.002-0.061v-69.856
		c0-3.038-2.462-5.5-5.5-5.5s-5.5,2.462-5.5,5.5v69.856c0,0.001,0,0.003,0,0.004h-0.004c0,0.018,0.001,0.037,0.001,0.055
		c-0.032,8.136-6.659,14.747-14.803,14.747c-8.164,0-14.806-6.642-14.806-14.806v-69.856c0-3.038-2.462-5.5-5.5-5.5
		s-5.5,2.462-5.5,5.5v69.856c0,5.506,1.739,10.611,4.689,14.806h-13.816c2.95-4.195,4.689-9.299,4.689-14.806
		c0-6.895-2.684-13.375-7.557-18.248c-4.873-4.874-11.354-7.558-18.249-7.558h-0.997V388.31c0-28.504-23.186-51.694-51.684-51.694
		c-3.038,0-5.5,2.462-5.5,5.5s2.462,5.5,5.5,5.5c22.433,0,40.684,18.255,40.684,40.694v20.604h-9.932c-3.038,0-5.5,2.462-5.5,5.5
		s2.462,5.5,5.5,5.5h15.432h6.497c3.957,0,7.675,1.54,10.47,4.335c2.796,2.795,4.335,6.514,4.335,10.47
		c0,8.164-6.642,14.806-14.806,14.806h-55.924c-0.002,0-0.004,0-0.006,0c-16.29-0.004-29.542-13.257-29.542-29.549v-89.095
		c0-24.16,7.729-47.049,22.353-66.194c12.486-16.347,29.57-28.957,48.712-36.109c0.773,8.852,2.91,17.519,6.422,25.847
		c1.179,2.799,4.405,4.112,7.205,2.931c2.799-1.18,4.111-4.405,2.931-7.205c-3.916-9.288-5.901-19.047-5.901-29.006V31.877
		c0-11.512,9.365-20.877,20.877-20.877s20.877,9.366,20.877,20.877v110.255c0,1.91,0.991,3.683,2.617,4.684
		c1.626,1.002,3.655,1.085,5.361,0.227c15.59-7.866,33.456-12.023,51.665-12.023c3.033,0,6.161,0.123,9.295,0.365
		c1.526,0.115,3.036-0.407,4.16-1.448c1.125-1.041,1.764-2.504,1.764-4.036V31.877c0-11.512,9.365-20.877,20.877-20.877
		s20.877,9.366,20.877,20.877v114.916c0,1.906,0.986,3.675,2.607,4.678c26.185,16.193,41.817,42.24,41.817,69.675
		C385.52,268.636,340.033,307.272,284.122,307.272z"/>
	<circle cx="245.713" cy="223.923" r="9.255"/>
	<circle cx="357.337" cy="223.923" r="9.255"/>
	<path d="M344.823,251.868c-3.038,0-5.5,2.462-5.5,5.5c0,6.44-5.24,11.68-11.68,11.68c-4.83,0-8.985-2.947-10.76-7.138
		c6.825-2.096,11.575-7.455,11.575-13.914c0-8.339-7.904-14.872-17.995-14.872s-17.995,6.532-17.995,14.872
		c0,6.458,4.75,11.817,11.575,13.913c-1.776,4.191-5.931,7.138-10.761,7.138c-6.44,0-11.68-5.239-11.68-11.68
		c0-3.038-2.462-5.5-5.5-5.5s-5.5,2.462-5.5,5.5c0,12.506,10.174,22.68,22.68,22.68c6.86,0,13.018-3.061,17.18-7.889
		c4.162,4.828,10.32,7.889,17.18,7.889c12.506,0,22.68-10.174,22.68-22.68C350.323,254.331,347.861,251.868,344.823,251.868z
		 M310.463,244.125c4.27,0,6.995,2.293,6.995,3.872s-2.725,3.872-6.995,3.872s-6.995-2.293-6.995-3.872
		S306.193,244.125,310.463,244.125z"/>
</g>
<g>
</g>
<g>
</g>
<g>
</g>
<g>
</g>
<g>
</g>
<g>
</g>
<g>
</g>
<g>
</g>
<g>
</g>
<g>
</g>
<g>
</g>
<g>
</g>
<g>
</g>
<g>
</g>
<g>
</g>
</svg>
