<?xml version="1.0" encoding="iso-8859-1"?>
<!-- Generator: Adobe Illustrator 16.0.0, SVG Export Plug-In . SVG Version: 6.00 Build 0)  -->
<!DOCTYPE svg PUBLIC "-//W3C//DTD SVG 1.1//EN" "http://www.w3.org/Graphics/SVG/1.1/DTD/svg11.dtd">
<svg version="1.1" id="Capa_1" xmlns="http://www.w3.org/2000/svg" xmlns:xlink="http://www.w3.org/1999/xlink" x="0px" y="0px"
	 width="45.841px" height="45.842px" viewBox="0 0 45.841 45.842" style="enable-background:new 0 0 45.841 45.842;"
	 xml:space="preserve">
<g>
	<g>
		<path d="M43.782,42.049l-7.264-2.538c0.645-0.827,1.177-1.718,1.587-2.653l5.677-1.982c0.558-0.194,0.85-0.802,0.654-1.357
			s-0.801-0.849-1.357-0.652l-4.197,1.467c0.119-0.649,0.2-1.311,0.2-1.987c0-4.704-2.974-8.843-7.479-11.263
			c1.219-1.502,2.431-3.24,3.564-5.166c4.267-7.243,5.786-14.255,3.396-15.666c-2.393-1.409-7.789,3.318-12.056,10.561
			c-1.609,2.732-2.82,5.426-3.588,7.804c-0.765-2.378-1.977-5.071-3.586-7.804C15.066,3.568,9.669-1.159,7.276,0.248
			c-2.39,1.411-0.871,8.423,3.396,15.666c1.135,1.926,2.348,3.664,3.565,5.166c-4.505,2.42-7.478,6.559-7.478,11.263
			c0,0.679,0.081,1.338,0.2,1.987l-4.197-1.467c-0.558-0.194-1.164,0.099-1.357,0.652c-0.194,0.558,0.098,1.163,0.653,1.357
			l5.677,1.981c0.41,0.938,0.943,1.827,1.587,2.654l-7.264,2.54c-0.556,0.194-0.848,0.802-0.653,1.356
			c0.152,0.438,0.565,0.715,1.004,0.715c0.117,0,0.236-0.021,0.354-0.062l8.128-2.84c2.952,2.732,7.229,4.502,12.028,4.623
			c4.801-0.121,9.078-1.891,12.028-4.623l8.129,2.84c0.116,0.039,0.235,0.062,0.354,0.062c0.438,0,0.852-0.274,1.005-0.715
			C44.63,42.85,44.338,42.243,43.782,42.049z M17.725,33.599c0-1.027,0.835-1.862,1.865-1.862c1.028,0,1.863,0.835,1.863,1.862
			c0,1.031-0.835,1.864-1.863,1.864C18.559,35.464,17.725,34.631,17.725,33.599z M25.256,38.287c0,0-1.127,1.346-1.523,1.773
			c-0.106,0.116-0.329,0.436-0.769,0.436c-0.499,0-0.737-0.308-0.854-0.436c-0.396-0.43-1.525-1.773-1.525-1.773
			c-0.141-0.164-0.172-0.396-0.083-0.59c0.09-0.196,0.286-0.32,0.502-0.32l1.916,0.002l1.917-0.002c0.217,0,0.412,0.124,0.502,0.32
			C25.43,37.892,25.397,38.123,25.256,38.287z M26.252,35.464c-1.029,0-1.863-0.833-1.863-1.864c0-1.027,0.834-1.862,1.863-1.862
			c1.028,0,1.863,0.835,1.863,1.862C28.118,34.631,27.282,35.464,26.252,35.464z"/>
	</g>
</g>
<g>
</g>
<g>
</g>
<g>
</g>
<g>
</g>
<g>
</g>
<g>
</g>
<g>
</g>
<g>
</g>
<g>
</g>
<g>
</g>
<g>
</g>
<g>
</g>
<g>
</g>
<g>
</g>
<g>
</g>
</svg>
