<?xml version="1.0" encoding="iso-8859-1"?>
<!-- Generator: Adobe Illustrator 16.0.0, SVG Export Plug-In . SVG Version: 6.00 Build 0)  -->
<!DOCTYPE svg PUBLIC "-//W3C//DTD SVG 1.1//EN" "http://www.w3.org/Graphics/SVG/1.1/DTD/svg11.dtd">
<svg version="1.1" id="Capa_1" xmlns="http://www.w3.org/2000/svg" xmlns:xlink="http://www.w3.org/1999/xlink" x="0px" y="0px"
	 width="956.44px" height="956.44px" viewBox="0 0 956.44 956.44" style="enable-background:new 0 0 956.44 956.44;"
	 xml:space="preserve">
<g>
	<g>
		<g>
			<path d="M403.42,709.971v20.1c0,41.3,33.7,74.8,75,74.8c41,0,75-33.5,75-74.8v-20.1c-25,7.1-50,10.8-75,10.8
				S428.42,717.17,403.42,709.971z"/>
			<path d="M162.02,508.37c-52.2-82.2-84.5-174.5-84.5-245.8c0-16,4.7-31.3,14-45.3c1-1.5,2-2.9,3.1-4.3
				c-23.9-3.5-54.2-0.3-79.1,26.9c-33.9,37-3.3,118.5,7.6,158.9c10.4,38.8,23.6,79.5,29.7,120.2c8.4,56.1-18.9,131.199,25.2,177.399
				c19.4,20.3,46.7,13,65.3-5.5c31.8-31.6,45.2-69.8,42.9-109.5C184.72,555.37,176.02,530.37,162.02,508.37z"/>
			<path d="M933.32,398.67c10.899-40.4,41.5-121.9,7.6-158.9c-24.9-27.2-55.2-30.4-79.1-26.9c1.1,1.4,2.1,2.9,3.1,4.3
				c9.3,14.1,14,29.3,14,45.3c0,71.2-32.3,163.6-84.5,245.8c-14,22-22.7,47.1-24.2,73.1c-2.3,39.7,11.101,77.9,42.9,109.5
				c18.6,18.5,45.899,25.8,65.3,5.5c44.1-46.2,16.8-121.3,25.2-177.399C909.72,478.17,922.92,437.57,933.32,398.67z"/>
			<path d="M795.32,435.17c7.199-15,13.699-30.3,19.5-45.899c14.899-40,29-84,29-126.7c0-14.2-6.5-27.5-18.601-38.5
				c-51.2-48-198.8-72.5-346.8-72.5c-147.9,0-295.9,24.5-347,72.5c-38.3,34.8-11.5,100.7,1.9,141.7c16.7,51.1,40.4,100,71.2,144.2
				c58.2,83.6,150.3,166.699,255.9,175.1v-92.5c-40.8-18-95.1-86.7-95.1-126.5c0-23,56.6-34.5,113.1-34.5
				c56,0,113.1,11.5,113.1,34.5c0,39.8-55.1,108.5-95.1,126.5v92.5c105.9-8.7,198.1-92.2,256.3-176.2
				C768.92,485.471,783.12,460.771,795.32,435.17z M263.42,402.771c-14.9,0-27-20.5-27-45.7s12.1-45.7,27-45.7s27,20.5,27,45.7
				S278.32,402.771,263.42,402.771z M693.02,402.771c-14.899,0-27-20.5-27-45.7s12.101-45.7,27-45.7c14.9,0,27,20.5,27,45.7
				S707.92,402.771,693.02,402.771z"/>
		</g>
	</g>
</g>
<g>
</g>
<g>
</g>
<g>
</g>
<g>
</g>
<g>
</g>
<g>
</g>
<g>
</g>
<g>
</g>
<g>
</g>
<g>
</g>
<g>
</g>
<g>
</g>
<g>
</g>
<g>
</g>
<g>
</g>
</svg>
