<?xml version="1.0" encoding="iso-8859-1"?>
<!-- Generator: Adobe Illustrator 18.1.1, SVG Export Plug-In . SVG Version: 6.00 Build 0)  -->
<svg version="1.1" id="Capa_1" xmlns="http://www.w3.org/2000/svg" xmlns:xlink="http://www.w3.org/1999/xlink" x="0px" y="0px"
	 viewBox="0 0 269.995 269.995" style="enable-background:new 0 0 269.995 269.995;" xml:space="preserve">
<g>
	<path style="fill:#030104;" d="M252.702,220.038c-11.21,0-19.059-6.126-23.542-18.377c-4.485-12.251-9.209-33.663-14.172-64.255
		c-4.646-29.627-9.769-51.483-15.374-65.578c-5.129-12.973-12.734-23.263-22.822-30.866c-10.088-7.61-21.776-11.417-35.068-11.417
		c-34.275-0.317-56.931,13.54-67.978,41.556c-4.97,12.338-10.334,34.354-16.096,66.066c-3.365,19.378-6.816,38.673-10.334,57.894
		c-2.879,13.768-12.573,20.654-29.061,20.654c-4.97,0-10.814-0.566-17.538-1.678C0.236,215.312,0,216.676,0,218.116
		c0,8.65,9.28,14.173,27.862,16.575c2.719,0.316,5.443,0.481,8.165,0.481c9.611,0,19.699-2.243,30.268-6.727
		c10.571-4.483,18.416-6.646,23.542-6.487c6.083,0,13.011,2.721,20.774,8.167c7.771,5.443,15.652,8.171,23.66,8.171
		c7.852,0.152,16.421-1.923,25.705-6.247c8.809-4.005,16.419-5.767,22.818-5.283c4.965,0.479,11.537,2.965,19.701,7.444
		c7.525,4.001,17.057,6.084,28.586,6.245c7.207-0.317,13.457-1.442,18.739-3.36c12.489-4.647,19.216-12.814,20.175-24.5
		C265.188,217.555,259.429,220.038,252.702,220.038z M108.571,98.607c-2.082,2.008-4.562,3.008-7.446,3.008
		c-2.878,0-5.326-1-7.327-3.008c-2.003-1.997-2.999-4.441-2.999-7.325c0-2.879,0.996-5.318,2.999-7.325
		c2.001-2,4.448-3.003,7.327-3.003c2.884,0,5.364,1.003,7.446,3.003c2.077,2.007,3.126,4.446,3.126,7.325
		C111.697,94.166,110.648,96.61,108.571,98.607z M128.51,141.492c-1.919,0-3.691-0.158-5.287-0.483
		c-8.009-3.044-12.007-7.846-12.007-14.418c0-1.594,0.315-3.356,0.961-5.278c4.959,6.404,12.325,9.601,22.092,9.601
		c4.965,0,9.852-0.793,14.658-2.394C143.964,137.168,137.155,141.492,128.51,141.492z M175.354,106.415
		c-2.084,2.087-4.565,3.123-7.447,3.123c-2.883,0-5.328-1.036-7.331-3.123c-2.002-2.075-3.001-4.561-3.001-7.445
		c0-2.88,0.999-5.321,3.001-7.329c2.003-1.997,4.448-2.998,7.331-2.998c2.882,0,5.363,1,7.447,2.998
		c2.074,2.008,3.119,4.448,3.119,7.329C178.474,101.855,177.429,104.34,175.354,106.415z"/>
</g>
<g>
</g>
<g>
</g>
<g>
</g>
<g>
</g>
<g>
</g>
<g>
</g>
<g>
</g>
<g>
</g>
<g>
</g>
<g>
</g>
<g>
</g>
<g>
</g>
<g>
</g>
<g>
</g>
<g>
</g>
</svg>
