<?xml version="1.0" encoding="iso-8859-1"?>
<!-- Generator: Adobe Illustrator 18.0.0, SVG Export Plug-In . SVG Version: 6.00 Build 0)  -->
<!DOCTYPE svg PUBLIC "-//W3C//DTD SVG 1.1//EN" "http://www.w3.org/Graphics/SVG/1.1/DTD/svg11.dtd">
<svg version="1.1" id="Capa_1" xmlns="http://www.w3.org/2000/svg" xmlns:xlink="http://www.w3.org/1999/xlink" x="0px" y="0px"
	 viewBox="0 0 476.325 476.325" style="enable-background:new 0 0 476.325 476.325;" xml:space="preserve">
<g>
	<path d="M160.246,343.481c-1.452-2.126-1.803-4.843-0.939-7.268l12.752-35.781c2.42-6.789,0.849-14.262-4.1-19.503
		c-4.948-5.24-12.318-7.234-19.237-5.208l-36.451,10.688c-2.47,0.724-5.164,0.218-7.203-1.353l-30.089-23.185
		c-5.709-4.399-13.302-5.213-19.815-2.127c-6.513,3.087-10.689,9.481-10.897,16.686l-1.1,37.97
		c-0.075,2.573-1.387,4.978-3.512,6.431L8.306,342.283c-5.948,4.071-9.07,11.04-8.146,18.188c0.924,7.148,5.714,13.095,12.502,15.52
		l35.771,12.779c2.425,0.866,4.306,2.858,5.032,5.328l10.715,36.443c2.034,6.915,7.697,12.037,14.781,13.368
		c1.19,0.223,2.381,0.333,3.562,0.333c5.843,0,11.398-2.679,15.062-7.427l23.208-30.072c0,0,0,0,0,0
		c1.572-2.038,4.042-3.217,6.621-3.139l37.971,1.071c7.206,0.2,13.826-3.6,17.281-9.927c3.454-6.326,3.074-13.953-0.992-19.904
		L160.246,343.481z M173.011,389.478c-1.485,2.719-4.228,4.289-7.316,4.203l-37.971-1.071c-6.074-0.174-11.925,2.601-15.64,7.414
		l0,0l-23.208,30.072c-1.893,2.453-4.84,3.575-7.885,3.004c-3.045-0.572-5.384-2.688-6.258-5.66l-10.715-36.443
		c-1.715-5.834-6.158-10.538-11.884-12.583l-35.771-12.779c-2.917-1.042-4.896-3.499-5.293-6.571
		c-0.397-3.072,0.892-5.951,3.449-7.7l31.348-21.452c5.019-3.434,8.12-9.113,8.295-15.191l1.1-37.969
		c0.09-3.097,1.815-5.738,4.614-7.065c1.131-0.536,2.318-0.801,3.492-0.801c1.73,0,3.435,0.575,4.897,1.701l30.089,23.185
		c4.818,3.711,11.177,4.906,17.011,3.195l36.451-10.688c2.972-0.871,6.018-0.047,8.145,2.205c2.127,2.252,2.776,5.339,1.736,8.257
		l-12.752,35.781c-2.041,5.728-1.211,12.145,2.218,17.166l21.428,31.365C174.339,383.608,174.496,386.759,173.011,389.478z"/>
	<path d="M99.378,269.916c0.868,0.503,1.817,0.743,2.753,0.743c1.897,0,3.743-0.982,4.764-2.741
		c0.25-0.432,25.58-43.774,70.479-93.001c41.273-45.251,108.024-104.903,191.639-132.103c2.889-0.94,4.469-4.043,3.529-6.932
		c-0.94-2.888-4.042-4.469-6.932-3.529c-38.021,12.368-75.795,32.182-112.274,58.892c-29.101,21.308-57.454,47.032-84.271,76.457
		c-45.632,50.072-71.432,94.257-71.687,94.698C95.854,265.028,96.75,268.392,99.378,269.916z"/>
	<path d="M176.892,263.298c-2.319,1.962-2.609,5.432-0.647,7.751c1.088,1.286,2.64,1.948,4.202,1.948
		c1.254,0,2.516-0.427,3.549-1.301c49.307-41.705,149.218-113.272,264.377-123.998c3.024-0.282,5.248-2.962,4.966-5.986
		c-0.282-3.024-2.958-5.251-5.986-4.966c-51.592,4.805-105.085,21.77-158.994,50.424
		C240.62,212.544,201.393,242.574,176.892,263.298z"/>
	<path d="M470.663,231.61c-81.982,2.417-158.353,32.177-207.982,56.717c-53.709,26.557-88.663,52.972-89.009,53.236
		c-2.418,1.839-2.888,5.289-1.049,7.707c1.082,1.423,2.722,2.171,4.382,2.171c1.161,0,2.331-0.366,3.325-1.122
		c0.338-0.257,34.451-26.036,87.227-52.131c48.648-24.055,123.432-53.224,203.431-55.582c3.036-0.089,5.425-2.623,5.335-5.66
		S473.703,231.509,470.663,231.61z"/>
	<circle cx="71.961" cy="354.457" r="6.82"/>
	<circle cx="117.849" cy="332.704" r="6.82"/>
	<path d="M117.219,353.124c-2.861-1.021-6.008,0.471-7.029,3.332c-2.174,6.094-8.9,9.283-14.994,7.108
		c-2.863-1.021-6.008,0.471-7.029,3.332c-1.021,2.861,0.471,6.008,3.332,7.029c2.517,0.898,5.088,1.324,7.619,1.324
		c9.342,0,18.118-5.805,21.433-15.095C121.572,357.291,120.08,354.145,117.219,353.124z"/>
</g>
<g>
</g>
<g>
</g>
<g>
</g>
<g>
</g>
<g>
</g>
<g>
</g>
<g>
</g>
<g>
</g>
<g>
</g>
<g>
</g>
<g>
</g>
<g>
</g>
<g>
</g>
<g>
</g>
<g>
</g>
</svg>
