<?xml version="1.0" encoding="iso-8859-1"?>
<!-- Generator: Adobe Illustrator 17.1.0, SVG Export Plug-In . SVG Version: 6.00 Build 0)  -->
<!DOCTYPE svg PUBLIC "-//W3C//DTD SVG 1.1//EN" "http://www.w3.org/Graphics/SVG/1.1/DTD/svg11.dtd">
<svg version="1.1" id="Capa_1" xmlns="http://www.w3.org/2000/svg" xmlns:xlink="http://www.w3.org/1999/xlink" x="0px" y="0px"
	 viewBox="0 0 470.004 470.004" style="enable-background:new 0 0 470.004 470.004;" xml:space="preserve">
<g>
	<path d="M158.569,224.502c-4.142,0-7.5,3.358-7.5,7.5c0,6.103-4.964,11.067-11.067,11.067s-11.067-4.964-11.067-11.067
		s4.964-11.067,11.067-11.067c4.142,0,7.5-3.358,7.5-7.5s-3.358-7.5-7.5-7.5c-14.374,0-26.067,11.693-26.067,26.067
		s11.693,26.067,26.067,26.067s26.067-11.693,26.067-26.067C166.069,227.86,162.711,224.502,158.569,224.502z"/>
	<path d="M348.569,224.502c-4.142,0-7.5,3.358-7.5,7.5c0,6.103-4.964,11.067-11.067,11.067s-11.067-4.964-11.067-11.067
		s4.964-11.067,11.067-11.067c4.142,0,7.5-3.358,7.5-7.5s-3.358-7.5-7.5-7.5c-14.374,0-26.067,11.693-26.067,26.067
		s11.693,26.067,26.067,26.067s26.067-11.693,26.067-26.067C356.069,227.86,352.711,224.502,348.569,224.502z"/>
	<path d="M259.776,248.415c-3.902-1.386-8.191,0.651-9.579,4.555c-2.28,6.414-8.386,10.723-15.195,10.723
		s-12.915-4.309-15.195-10.723c-1.388-3.903-5.677-5.94-9.579-4.555c-3.903,1.388-5.942,5.676-4.555,9.579
		c4.401,12.38,16.188,20.699,29.329,20.699s24.927-8.318,29.329-20.699C265.718,254.091,263.679,249.803,259.776,248.415z"/>
	<path d="M206.66,198.812c0-4.142-3.358-7.5-7.5-7.5h-23.767c-4.142,0-7.5,3.358-7.5,7.5s3.358,7.5,7.5,7.5h16.3
		c0.357,3.81,3.564,6.791,7.467,6.791c4.142,0,7.5-3.358,7.5-7.5V198.812z"/>
	<path d="M294.611,191.312h-23.767c-4.142,0-7.5,3.358-7.5,7.5v6.791c0,4.142,3.358,7.5,7.5,7.5c3.903,0,7.109-2.981,7.467-6.791
		h16.3c4.142,0,7.5-3.358,7.5-7.5S298.753,191.312,294.611,191.312z"/>
	<path d="M465.372,322.307l-57.353-23.756c6.48-17.587,10.339-36.429,11.129-56.048h21.855c4.142,0,7.5-3.358,7.5-7.5
		s-3.358-7.5-7.5-7.5h-21.855c-0.789-19.619-4.648-38.46-11.129-56.048l57.353-23.756c3.827-1.585,5.644-5.973,4.059-9.799
		c-1.584-3.827-5.974-5.644-9.799-4.059l-57.381,23.768c-8.116-17.468-18.886-33.458-31.794-47.453l15.513-15.513
		c2.929-2.929,2.929-7.678,0-10.606c-2.929-2.929-7.678-2.929-10.606,0L359.85,99.548c-13.995-12.909-29.986-23.679-47.453-31.794
		l23.768-57.381c1.585-3.827-0.232-8.214-4.059-9.799c-3.828-1.586-8.214,0.232-9.799,4.059L298.55,61.986
		c-17.587-6.48-36.429-10.339-56.048-11.129V29.002c0-4.142-3.358-7.5-7.5-7.5s-7.5,3.358-7.5,7.5v21.854
		c-19.619,0.79-38.461,4.648-56.048,11.129L147.698,4.632c-1.584-3.827-5.973-5.643-9.799-4.059
		c-3.827,1.585-5.644,5.973-4.059,9.799l23.768,57.381c-17.468,8.116-33.459,18.886-47.453,31.794L94.641,84.035
		c-2.929-2.929-7.678-2.929-10.606,0c-2.929,2.929-2.929,7.678,0,10.606l15.513,15.513c-12.909,13.995-23.679,29.985-31.794,47.453
		L10.372,133.84c-3.829-1.585-8.214,0.232-9.799,4.059c-1.585,3.827,0.232,8.214,4.059,9.799l57.353,23.756
		c-6.48,17.587-10.339,36.429-11.129,56.048H29.002c-4.142,0-7.5,3.358-7.5,7.5s3.358,7.5,7.5,7.5h21.855
		c0.789,19.619,4.648,38.46,11.129,56.048L4.632,322.307c-3.827,1.585-5.644,5.973-4.059,9.799c1.196,2.888,3.989,4.632,6.932,4.632
		c0.957,0,1.929-0.184,2.867-0.573l57.381-23.768c8.116,17.468,18.886,33.458,31.794,47.453l-15.513,15.513
		c-2.929,2.929-2.929,7.678,0,10.606c1.464,1.464,3.384,2.197,5.303,2.197s3.839-0.732,5.303-2.197l15.513-15.513
		c13.995,12.909,29.986,23.679,47.453,31.794l-23.768,57.381c-1.585,3.827,0.232,8.214,4.059,9.799
		c0.939,0.389,1.911,0.573,2.867,0.573c2.943,0,5.736-1.744,6.932-4.632l23.756-57.354c17.587,6.48,36.429,10.339,56.048,11.129
		v21.854c0,4.142,3.358,7.5,7.5,7.5s7.5-3.358,7.5-7.5v-21.854c19.619-0.79,38.461-4.648,56.048-11.129l23.756,57.354
		c1.196,2.888,3.989,4.632,6.932,4.632c0.957,0,1.929-0.184,2.867-0.573c3.827-1.585,5.644-5.973,4.059-9.799l-23.768-57.381
		c17.468-8.116,33.459-18.886,47.453-31.794l15.513,15.513c1.464,1.464,3.384,2.197,5.303,2.197s3.839-0.732,5.303-2.197
		c2.929-2.929,2.929-7.678,0-10.606l-15.513-15.513c12.909-13.995,23.679-29.985,31.794-47.453l57.381,23.768
		c0.939,0.389,1.911,0.573,2.867,0.573c2.943,0,5.736-1.744,6.932-4.632C471.016,328.279,469.199,323.892,465.372,322.307z
		 M235.002,404.313c-93.358,0-169.311-75.952-169.311-169.311S141.644,65.692,235.002,65.692s169.311,75.952,169.311,169.311
		S328.361,404.313,235.002,404.313z"/>
</g>
<g>
</g>
<g>
</g>
<g>
</g>
<g>
</g>
<g>
</g>
<g>
</g>
<g>
</g>
<g>
</g>
<g>
</g>
<g>
</g>
<g>
</g>
<g>
</g>
<g>
</g>
<g>
</g>
<g>
</g>
</svg>
