<?xml version="1.0" encoding="iso-8859-1"?>
<!-- Generator: Adobe Illustrator 18.0.0, SVG Export Plug-In . SVG Version: 6.00 Build 0)  -->
<!DOCTYPE svg PUBLIC "-//W3C//DTD SVG 1.1//EN" "http://www.w3.org/Graphics/SVG/1.1/DTD/svg11.dtd">
<svg version="1.1" id="Capa_1" xmlns="http://www.w3.org/2000/svg" xmlns:xlink="http://www.w3.org/1999/xlink" x="0px" y="0px"
	 viewBox="0 0 485.049 485.049" style="enable-background:new 0 0 485.049 485.049;" xml:space="preserve">
<g>
	<path d="M426.014,439.085c-33.523-38.734-65.499-79.323-95.142-120.763c15.152-1.102,30.163-2.471,44.745-4.081
		c2.031-0.224,3.771-1.556,4.517-3.459c0.746-1.903,0.376-4.062-0.961-5.607c-22.805-26.35-44.613-53.815-64.925-81.76
		c13.307-0.941,26.479-2.128,39.278-3.541c2.031-0.224,3.771-1.556,4.517-3.459s0.376-4.062-0.961-5.607
		c-38.953-45.009-73.699-93.031-103.415-142.895l6.054,3.063c1.841,0.931,4.048,0.753,5.715-0.458
		c1.669-1.212,2.52-3.256,2.202-5.294L264.68,46.18l13.587-13.667c1.454-1.463,1.968-3.616,1.33-5.577
		c-0.637-1.961-2.318-3.401-4.354-3.73l-19.025-3.071l-8.799-17.146C246.476,1.154,244.587,0,242.524,0s-3.951,1.154-4.894,2.989
		l-8.8,17.146l-19.025,3.071c-2.036,0.329-3.718,1.769-4.354,3.73c-0.638,1.962-0.124,4.115,1.33,5.577l13.587,13.667l-2.958,19.043
		c-0.316,2.038,0.533,4.082,2.202,5.294c0.957,0.696,2.092,1.05,3.233,1.05c0.847,0,1.697-0.196,2.481-0.592l6.052-3.061
		c-29.716,49.866-64.461,97.886-103.414,142.893c-1.337,1.545-1.707,3.705-0.961,5.607s2.485,3.234,4.517,3.459
		c12.801,1.413,25.972,2.6,39.278,3.541c-20.305,27.938-42.114,55.405-64.924,81.761c-1.337,1.545-1.707,3.705-0.961,5.607
		c0.746,1.902,2.485,3.234,4.517,3.459c14.581,1.61,29.59,2.978,44.744,4.081c-29.637,41.434-61.611,82.022-95.141,120.764
		c-1.337,1.545-1.707,3.705-0.961,5.607s2.485,3.234,4.517,3.459c47.45,5.238,95.166,8.387,142.936,9.462v21.935
		c0,3.038,2.463,5.5,5.5,5.5h63c3.037,0,5.5-2.462,5.5-5.5v-21.935c47.768-1.075,95.483-4.224,142.932-9.462
		c2.031-0.224,3.771-1.556,4.517-3.459C427.721,442.79,427.351,440.631,426.014,439.085z M230.131,40.397l-7.993-8.041l11.192-1.806
		c1.728-0.279,3.219-1.362,4.018-2.918l5.177-10.087l5.176,10.086c0.799,1.556,2.29,2.64,4.018,2.918l11.192,1.806l-7.993,8.041
		c-1.233,1.24-1.803,2.994-1.534,4.722l1.741,11.203l-10.117-5.117c-1.561-0.79-3.404-0.79-4.965,0l-10.117,5.118l1.74-11.203
		C231.934,43.391,231.364,41.638,230.131,40.397z M268.526,474.049h-52v-16.225c8.665,0.137,17.332,0.214,25.998,0.214
		c8.668,0,17.335-0.077,26.002-0.214V474.049z M74.192,438.332c33.414-39.104,65.221-79.984,94.646-121.65
		c1.148-1.626,1.328-3.746,0.47-5.543c-0.857-1.797-2.62-2.989-4.606-3.118c-14.726-0.956-29.37-2.168-43.671-3.614
		c22.722-26.707,44.391-54.461,64.508-82.63c1.162-1.627,1.35-3.758,0.489-5.563c-0.86-1.805-2.633-3.001-4.629-3.124
		c-12.906-0.79-25.739-1.817-38.28-3.061c37.345-44.039,70.728-90.828,99.405-139.328c28.678,48.498,62.061,95.288,99.406,139.328
		c-12.54,1.245-25.373,2.271-38.28,3.061c-1.996,0.122-3.769,1.318-4.629,3.124s-0.673,3.935,0.489,5.563
		c20.123,28.175,41.794,55.931,64.509,82.63c-14.303,1.446-28.946,2.658-43.672,3.614c-1.986,0.129-3.748,1.322-4.606,3.118
		s-0.679,3.917,0.471,5.543c29.43,41.673,61.236,82.552,94.646,121.65C299.093,449.941,185.954,449.941,74.192,438.332z"/>
	<circle cx="195.527" cy="181.781" r="8"/>
	<circle cx="289.521" cy="181.781" r="8"/>
	<path d="M242.524,218.86c10.643,0,19.301-8.658,19.301-19.301c0-3.038-2.463-5.5-5.5-5.5s-5.5,2.462-5.5,5.5
		c0,4.577-3.724,8.301-8.301,8.301s-8.301-3.724-8.301-8.301c0-3.038-2.463-5.5-5.5-5.5s-5.5,2.462-5.5,5.5
		C223.224,210.202,231.882,218.86,242.524,218.86z"/>
	<path d="M149.567,390.512c-11.303,0-20.499,9.196-20.499,20.499s9.196,20.499,20.499,20.499c11.304,0,20.5-9.196,20.5-20.499
		S160.871,390.512,149.567,390.512z M149.567,420.51c-5.237,0-9.499-4.261-9.499-9.499s4.262-9.499,9.499-9.499
		c5.238,0,9.5,4.261,9.5,9.499S154.806,420.51,149.567,420.51z"/>
	<path d="M275.562,281.017c-11.303,0-20.499,9.196-20.499,20.499s9.196,20.499,20.499,20.499s20.499-9.196,20.499-20.499
		S286.864,281.017,275.562,281.017z M275.562,311.016c-5.237,0-9.499-4.261-9.499-9.499s4.262-9.499,9.499-9.499
		s9.499,4.261,9.499,9.499S280.799,311.016,275.562,311.016z"/>
	<path d="M239.563,353.013c-8.822,0-16,7.177-16,16s7.178,16,16,16s15.999-7.177,15.999-16S248.386,353.013,239.563,353.013z
		 M239.563,374.012c-2.757,0-5-2.243-5-5s2.243-5,5-5s4.999,2.243,4.999,5S242.32,374.012,239.563,374.012z"/>
	<path d="M188.565,257.018c-9.235,0-16.749,7.514-16.749,16.75s7.514,16.75,16.749,16.75c9.236,0,16.75-7.514,16.75-16.75
		S197.802,257.018,188.565,257.018z M188.565,279.517c-3.17,0-5.749-2.579-5.749-5.75s2.579-5.75,5.749-5.75
		c3.171,0,5.75,2.579,5.75,5.75S191.736,279.517,188.565,279.517z"/>
	<path d="M333.676,420.002c9.235,0,16.749-7.514,16.749-16.75s-7.514-16.75-16.749-16.75c-9.236,0-16.75,7.514-16.75,16.75
		S324.439,420.002,333.676,420.002z M333.676,397.503c3.17,0,5.749,2.579,5.749,5.75s-2.579,5.75-5.749,5.75
		c-3.171,0-5.75-2.579-5.75-5.75S330.505,397.503,333.676,397.503z"/>
	<path d="M248.18,151.515c9.236,0,16.75-7.514,16.75-16.75s-7.514-16.75-16.75-16.75c-9.235,0-16.749,7.514-16.749,16.75
		S238.944,151.515,248.18,151.515z M248.18,129.016c3.171,0,5.75,2.579,5.75,5.75s-2.579,5.75-5.75,5.75
		c-3.17,0-5.749-2.579-5.749-5.75S245.01,129.016,248.18,129.016z"/>
</g>
<g>
</g>
<g>
</g>
<g>
</g>
<g>
</g>
<g>
</g>
<g>
</g>
<g>
</g>
<g>
</g>
<g>
</g>
<g>
</g>
<g>
</g>
<g>
</g>
<g>
</g>
<g>
</g>
<g>
</g>
</svg>
